<?xml version="1.0" encoding="UTF-8" standalone="no"?>
<!-- Created with Inkscape (http://www.inkscape.org/) -->

<svg
   width="192mm"
   height="192mm"
   viewBox="0 0 192 192"
   version="1.1"
   id="svg1"
   xml:space="preserve"
   inkscape:version="1.3.2 (091e20e, 2023-11-25, custom)"
   sodipodi:docname="logoMobile.svg"
   xmlns:inkscape="http://www.inkscape.org/namespaces/inkscape"
   xmlns:sodipodi="http://sodipodi.sourceforge.net/DTD/sodipodi-0.dtd"
   xmlns="http://www.w3.org/2000/svg"
   xmlns:svg="http://www.w3.org/2000/svg"><sodipodi:namedview
     id="namedview1"
     pagecolor="#ffffff"
     bordercolor="#000000"
     borderopacity="0.25"
     inkscape:showpageshadow="2"
     inkscape:pageopacity="0.0"
     inkscape:pagecheckerboard="0"
     inkscape:deskcolor="#d1d1d1"
     inkscape:document-units="mm"
     inkscape:zoom="0.45344416"
     inkscape:cx="396.96178"
     inkscape:cy="382.62705"
     inkscape:window-width="1366"
     inkscape:window-height="705"
     inkscape:window-x="-8"
     inkscape:window-y="32"
     inkscape:window-maximized="1"
     inkscape:current-layer="layer1" /><defs
     id="defs1" /><g
     inkscape:label="Camada 1"
     inkscape:groupmode="layer"
     id="layer1"><rect
       style="fill:#deaa87;fill-rule:evenodd;stroke-width:1.32292"
       id="rect1"
       width="186.71906"
       height="186.71906"
       x="2.9174852"
       y="1.7504911"
       ry="4.4388342" /><path
       style="fill:#784421"
       d="M 0.78384463,95.934653 V -0.06534446 H 96.783844 192.78383 V 95.934653 191.93467 H 96.783844 0.78384463 Z M 105.37644,176.67892 c -0.12528,-0.23408 0.40479,-0.31114 1.31968,-0.19184 2.1775,0.28394 2.86546,0.25762 3.10582,-0.11883 0.11602,-0.1817 1.01541,-0.3897 1.99865,-0.46222 0.98324,-0.0725 1.82786,-0.25833 1.87692,-0.4129 0.0491,-0.15458 0.72652,-0.2538 1.50545,-0.2205 0.77893,0.0333 2.10638,-0.2164 2.9499,-0.55488 0.84351,-0.33848 1.775,-0.67385 2.06997,-0.74525 3.50737,-0.84908 10.88421,-4.58736 16.2533,-8.23651 15.64574,-10.63377 27.77062,-29.06656 32.19855,-48.94971 1.83859,-8.25596 2.12371,-11.15462 2.13227,-21.677427 0.007,-8.78198 -0.0884,-10.47353 -0.83972,-14.86452 -1.66857,-9.75206 -5.68441,-21.51478 -9.78669,-28.66605 -0.83708,-1.45924 -1.73185,-3.08504 -1.9884,-3.61291 -0.25654,-0.52786 -0.64536,-0.95975 -0.86405,-0.95975 -0.2187,0 -0.29721,-0.11597 -0.17447,-0.25771 0.12274,-0.14174 -0.13201,-0.60007 -0.56611,-1.01852 -0.43409,-0.41845 -0.64397,-0.76699 -0.4664,-0.77455 0.17758,-0.008 0.002,-0.3389 -0.39097,-0.73632 -0.3926,-0.39742 -0.77923,-0.93968 -0.85917,-1.20502 -0.19781,-0.65657 -6.10608,-8.04893 -6.2761,-7.85258 -0.0745,0.0861 -0.82683,-0.60462 -1.67175,-1.53488 -2.57099,-2.83067 -8.76301,-8.09139 -9.5238,-8.09139 -0.20461,0 -0.37202,-0.1858 -0.37202,-0.4129 0,-0.2271 -0.17628,-0.4129 -0.39174,-0.4129 -0.21545,0 -0.85903,-0.38427 -1.43016,-0.85393 -0.57114,-0.46965 -1.0409,-0.70191 -1.04391,-0.51613 -0.003,0.18579 -0.13551,0.10119 -0.29444,-0.188 -0.15892,-0.28919 -0.6235,-0.60021 -1.03239,-0.69114 -0.40888,-0.0909 -1.50937,-0.63622 -2.44552,-1.21174 -0.93615,-0.57551 -1.84684,-0.94307 -2.02377,-0.81679 -0.17692,0.12627 -0.59311,-0.0391 -0.92485,-0.36741 -0.96573,-0.95585 -1.65038,-1.34321 -1.33608,-0.75592 0.20286,0.37906 0.10391,0.4064 -0.39168,0.10823 -1.47711,-0.88869 -2.83449,-1.45117 -3.28182,-1.35992 -0.2604,0.0531 -0.66263,-0.0804 -0.89386,-0.29672 -0.23122,-0.21631 -1.34554,-0.61241 -2.47626,-0.88022 -1.13073,-0.26781 -2.05587,-0.64216 -2.05587,-0.8319 0,-0.18973 -0.32179,-0.24779 -0.71508,-0.12902 -0.3933,0.11877 -0.71509,0.0342 -0.71509,-0.18785 0,-0.22209 -0.42614,-0.30972 -0.94699,-0.19474 -0.58669,0.12952 -0.86199,0.0502 -0.72358,-0.20841 0.13703,-0.25605 -0.18802,-0.36214 -0.84072,-0.27438 -0.81676,0.10982 -1.0654,-0.023 -1.0696,-0.57143 -0.004,-0.55855 -0.0726,-0.59219 -0.31295,-0.15412 -0.25707,0.46853 -1.0555,0.47545 -4.87072,0.0422 -5.26874,-0.59829 -12.600666,-0.33196 -17.693536,0.64269 -1.86815,0.35752 -3.79888,0.5431 -4.2905,0.4124 -0.5648,-0.15015 -0.72343,-0.10584 -0.43091,0.12039 0.30793,0.23814 -0.5301,0.66385 -2.50279,1.2714 -1.63116,0.50236 -4.40537,1.5429 -6.16493,2.3123 -1.75955,0.76941 -3.35312,1.28905 -3.54127,1.15477 -0.20239,-0.14445 -0.22257,-0.0208 -0.0494,0.30271 0.2125,0.39707 0.1297,0.47465 -0.3023,0.2832 -0.32723,-0.14501 -0.59497,-0.0727 -0.59497,0.16065 0,0.23338 -0.16089,0.30948 -0.35754,0.16913 -0.19665,-0.14035 -0.35754,-0.0275 -0.35754,0.2509 0,0.27835 -0.10258,0.38763 -0.22795,0.24285 -0.12537,-0.14478 -1.45274,0.50409 -2.94972,1.44194 -13.01518,8.15398 -24.49438,22.10001 -30.52418,37.08366 -0.68542,1.70323 -1.26795,3.18968 -1.29451,3.30323 -0.0266,0.11355 -0.54432,1.6929 -1.15057,3.50968 -0.60625,1.81677 -1.23034,3.95355 -1.38686,4.74838 -0.15653,0.79484 -0.70868,3.39613 -1.22701,5.78065 -0.51833,2.38452 -1.03348,5.72903 -1.14477,7.43226 -0.40534,6.20324 -0.66999,14.94776 -0.45697,15.099547 0.12015,0.0856 0.32849,1.87939 0.46297,3.98614 0.37404,5.85954 0.66637,7.58357 2.53989,14.97884 1.25411,4.95034 3.10481,10.36133 4.21016,12.30952 0.33726,0.59443 0.61321,1.26985 0.61321,1.50094 0,0.77594 5.06031,9.93569 6.24445,11.30318 0.30186,0.3486 0.54884,0.71437 0.54884,0.81281 0,0.36566 3.48232,4.74551 6.64485,8.35748 9.3364,10.66327 21.69976,18.33 34.83943,21.60454 3.29871,0.82207 10.02209,1.60056 15.901196,1.84118 1.57319,0.0644 2.9905,0.15445 3.14959,0.20016 0.1591,0.0457 0.19504,-0.093 0.0799,-0.30814 z M 70.091094,123.66404 c -3.81194,-1.63379 -6.66259,-6.48571 -7.51033,-12.78289 -0.79382,-5.89669 0.69766,-12.002307 3.82892,-15.674297 1.55576,-1.82442 2.41925,-2.14347 4.97634,-1.83869 l 1.89055,0.22534 -0.4969,-1.90672 c -1.33063,-5.10592 -1.29906,-12.89933 0.0805,-19.88039 0.45467,-2.30074 0.45672,-2.73629 0.0153,-3.24608 -0.44144,-0.5098 -0.99964,-0.0147 -4.16016,3.68954 -5.82015,6.82153 -10.48514,13.89868 -12.90823,19.58278 -0.8918,2.09199 -1.11902,3.13098 -1.0827,4.95063 0.044,2.20191 0.0107,2.29115 -0.75735,2.03353 -1.0917,-0.36616 -2.4465,-2.28276 -2.32919,-3.29504 0.0567,-0.48935 0.41407,-0.87814 0.8771,-0.95426 0.57335,-0.0943 1.12051,-0.93176 2.05505,-3.14557 3.35205,-7.94062 10.8482,-18.49178 18.96346,-26.69191 l 3.44323,-3.47923 -1.12254,-0.53225 c -0.6174,-0.29273 -2.77919,-0.74604 -4.80399,-1.00734 l -3.68146,-0.47509 -4.0933,1.55475 c -4.30005,1.63328 -6.18857,1.79412 -6.8451,0.58296 -0.52895,-0.97581 -0.0845,-1.33136 1.52695,-1.22155 0.83016,0.0566 2.56642,-0.41071 4.37015,-1.17613 4.92692,-2.09076 8.49976,-2.07618 14.02112,0.0572 l 2.08983,0.80749 1.54576,-1.46277 c 1.71713,-1.62492 2.32275,-1.81879 2.31222,-0.74018 -0.004,0.40478 -1.26699,1.87283 -2.87176,3.33789 -1.57559,1.43842 -3.10728,3.04286 -3.40377,3.56541 -0.29648,0.52256 -1.04515,3.1547 -1.6637,5.84921 -1.03651,4.5152 -1.12646,5.43298 -1.14784,11.71201 -0.0208,6.10519 0.0634,7.10242 0.81043,9.6 l 0.83362,2.7871 h 1.7136 c 5.59149,0 8.69407,4.34817 8.69134,12.180647 -0.002,7.11349 -2.94935,13.76784 -7.24537,16.36085 -1.94829,1.17595 -5.91542,1.49297 -7.9218,0.63304 z m -3.02078,-6.53503 c -0.17988,-0.3361 -0.0536,-0.39227 0.41492,-0.18462 0.3704,0.16414 0.55909,0.16636 0.4193,0.005 -0.13978,-0.16143 -0.0799,-0.53598 0.13307,-0.83233 0.28637,-0.39849 0.15235,-1.10734 -0.5146,-2.72186 -0.76228,-1.84525 -1.20792,-4.06005 -1.29083,-6.4153 -0.0267,-0.75901 -1.33431,-0.62903 -1.59605,0.15865 -0.37398,1.12549 0.67036,6.41107 1.70229,8.61554 0.21261,0.45419 0.41238,0.96516 0.44393,1.13549 0.12192,0.65818 0.15281,0.72258 0.34662,0.72258 0.10993,0 0.0835,-0.21739 -0.0587,-0.48308 z m -0.71579,-12.14424 c 0.11936,-0.35922 0.21703,-1.11537 0.21703,-1.68033 0,-0.82908 -0.15517,-1.00176 -0.80447,-0.89527 -0.6462,0.10599 -0.82631,0.43658 -0.91544,1.68034 -0.0935,1.30453 -9.8e-4,1.54838 0.58744,1.54838 0.38413,0 0.79608,-0.2939 0.91544,-0.65312 z m -23.04656,15.74204 c -2.00175,-1.51647 -4.48657,-4.97292 -5.74427,-7.99041 -0.9933,-2.38317 -1.17327,-3.31673 -1.30906,-6.79065 -0.13643,-3.49003 -0.0345,-4.48206 0.76351,-7.432267 1.92601,-7.12022 6.01646,-11.89459 10.22294,-11.93222 1.55287,-0.0139 3.24108,0.68843 3.24108,1.34833 0,0.14344 -0.60335,0.37345 -1.34078,0.51113 -0.73743,0.13768 -1.98436,0.76497 -2.77095,1.39399 -0.78659,0.62901 -1.91285,1.32979 -2.5028,1.55729 -0.79304,0.30581 -1.10211,0.70959 -1.18576,1.5491 -0.0759,0.76184 -0.32138,1.13549 -0.746,1.13549 -1.32637,0 -3.90273,8.264397 -2.99078,9.593757 0.1971,0.28731 0.39084,1.98713 0.43055,3.77738 0.11899,5.36489 1.89071,10.21195 4.80548,13.1468 1.36388,1.37327 0.86477,1.44888 -0.87316,0.13228 z m 75.659766,-0.54967 c -0.40332,-0.46576 -0.16697,-0.83206 0.69878,-1.083 l 0.89386,-0.25908 -0.005,-7.32116 c -0.003,-4.02664 -0.12368,-7.52053 -0.26815,-7.76419 -0.14448,-0.24366 -0.54425,-0.56299 -0.88838,-0.70962 -0.96562,-0.41144 -0.74299,-0.98801 0.49162,-1.27317 1.88059,-0.43435 2.10056,-0.33593 2.10056,0.93986 v 1.19792 l 1.14317,-1.23324 c 0.92403,-0.99682 1.35241,-1.18697 2.23464,-0.99191 3.29525,0.7286 4.59195,8.13484 2.05901,11.76028 -1.23488,1.76752 -3.24734,2.24273 -4.39927,1.03883 -0.66143,-0.69127 -0.68001,-0.64018 -0.68001,1.86938 0,2.25005 0.0933,2.60825 0.7297,2.80044 0.40134,0.1212 0.6696,0.42896 0.59612,0.68392 -0.13471,0.46748 -4.33355,0.77506 -4.70617,0.34474 z m 7.12536,-7.49939 c 0.67177,-1.50021 0.72627,-6.80738 0.085,-8.27857 -0.59643,-1.36833 -2.03862,-1.55824 -2.95482,-0.3891 -1.01231,1.2918 -1.02325,7.73052 -0.0153,9.01672 0.99472,1.26934 2.2272,1.12024 2.88513,-0.34905 z m 21.48577,7.02957 c -0.34269,-0.43729 -0.5671,-1.13407 -0.49869,-1.54838 0.13313,-0.80631 1.69594,-1.3143 1.7707,-0.57557 0.0246,0.24289 0.0849,0.62743 0.13408,0.85452 0.0492,0.2271 0.1095,0.53461 0.13408,0.68335 0.10908,0.66008 1.50251,-1.3587 2.0219,-2.9293 l 0.57275,-1.73193 -1.79529,-5.51978 c -0.9874,-3.03588 -2.04382,-5.68042 -2.3476,-5.87674 -1.1277,-0.72881 -0.48696,-1.14173 1.7717,-1.14173 2.26386,0 3.0497,0.50418 1.60894,1.03226 -0.3933,0.14416 -0.7064,0.48184 -0.69578,0.75041 0.046,1.16311 2.42699,7.86182 2.59518,7.3012 1.73225,-5.77399 2.04323,-7.84516 1.17796,-7.84516 -0.27393,0 -0.59067,-0.27871 -0.70386,-0.61935 -0.16748,-0.50401 0.15834,-0.61936 1.74945,-0.61936 2.08559,0 2.4282,0.42862 1.26729,1.58543 -0.3901,0.38873 -1.58636,3.70462 -2.76296,7.65863 -2.12278,7.1337 -3.22741,9.33659 -4.68179,9.33659 -0.38225,0 -0.97538,-0.35779 -1.31806,-0.79509 z m -58.929096,-4.80498 c -0.50317,-0.59708 -0.26903,-0.95142 0.71508,-1.08218 l 0.98324,-0.13065 v -9.08388 -9.083877 l -1.00444,-0.13301 c -0.57632,-0.0763 -0.94431,-0.34031 -0.86338,-0.61936 0.0992,-0.34193 1.47442,-0.47328 4.63137,-0.44237 4.08041,0.04 4.59588,0.13077 5.6467,0.99488 0.66172,0.54414 1.557346,1.93834 2.093726,3.25926 0.8054,1.983387 0.93736,2.860567 0.93736,6.230937 0,4.7848 -0.85889,7.26023 -3.118116,8.98682 -1.28762,0.98404 -1.81768,1.10303 -5.58797,1.2544 -2.29098,0.092 -4.28609,0.024 -4.43357,-0.15097 z m 8.09575,-1.63241 c 2.07855,-1.13906 2.54112,-2.6431 2.54112,-8.26246 0,-5.879907 -0.58745,-7.995517 -2.51316,-9.050817 -1.63974,-0.89859 -3.27384,-0.8297 -3.73124,0.15731 -0.21715,0.46856 -0.37013,3.978297 -0.37013,8.491667 0,4.51337 0.15298,8.0231 0.37013,8.49167 0.45464,0.98104 2.08906,1.05723 3.70328,0.17263 z m 7.010386,1.34329 c 0,-0.28679 0.36201,-0.70486 0.80447,-0.92903 0.74594,-0.37794 0.81207,-0.70797 0.90899,-4.53662 0.12553,-4.95836 -0.0371,-5.88779 -1.06035,-6.06169 -1.45158,-0.24669 -1.07395,-1.04185 0.62229,-1.31035 0.91242,-0.14442 1.80318,-0.15964 1.97948,-0.0338 0.1763,0.12583 0.32054,2.8365 0.32054,6.02371 0,5.44768 0.0429,5.80788 0.71508,6.01089 0.3933,0.11877 0.71509,0.47299 0.71509,0.78715 0,0.43193 -0.61023,0.5712 -2.5028,0.5712 -1.77747,0 -2.50279,-0.15112 -2.50279,-0.52145 z m 6.66111,-0.40759 c -0.33155,-1.42874 -0.2648,-3.94891 0.11172,-4.21764 0.18539,-0.13232 0.65931,0.60069 1.05316,1.62891 0.85506,2.23231 2.08934,2.98704 3.55896,2.17623 1.04232,-0.57506 1.42837,-2.07988 0.76897,-2.99743 -0.22821,-0.31756 -1.27887,-0.86742 -2.33479,-1.22192 -1.11144,-0.37313 -2.15271,-1.02845 -2.47285,-1.55628 -1.88852,-3.11373 1.01911,-7.77586 3.78388,-6.06708 0.51013,0.31528 0.84932,0.31227 1.18614,-0.0105 0.61948,-0.59374 0.91275,0.27362 0.91275,2.69952 0,2.20137 -0.37788,2.32016 -1.18245,0.37172 -0.76156,-1.84427 -2.03833,-2.58271 -3.30928,-1.91396 -0.7528,0.39611 -0.89636,0.7211 -0.80447,1.82112 0.1,1.19719 0.2822,1.39546 1.72078,1.87248 2.44498,0.81073 3.34948,1.44769 3.88591,2.73647 0.61807,1.48496 0.0464,4.03319 -1.11561,4.97314 -0.89274,0.72213 -2.85119,0.83433 -3.84473,0.22028 -0.44779,-0.27676 -0.74334,-0.27676 -0.89145,0 -0.36702,0.68579 -0.79818,0.4695 -1.02664,-0.51502 z m 20.05,0.67068 c -0.46346,-0.53522 -0.2615,-0.92152 0.55146,-1.05486 l 0.80447,-0.13194 v -8.87742 c 0,-8.810187 -0.006,-8.880517 -0.80447,-9.285027 -1.43835,-0.72874 -0.95233,-1.45047 0.97677,-1.45047 h 1.78124 l 0.0959,9.806457 0.0959,9.80646 0.82508,0.13506 c 0.45379,0.0743 0.76275,0.35299 0.68658,0.61935 -0.15246,0.53317 -4.59385,0.91626 -5.01284,0.43239 z m 7.39828,-0.0576 c -0.58227,-0.44899 -1.21554,-1.98774 -1.21554,-2.95357 0,-1.41326 1.81941,-3.33662 3.93618,-4.16108 1.77426,-0.69106 1.97429,-0.89067 2.0778,-2.07338 0.14167,-1.61878 -0.76384,-2.88307 -2.06492,-2.88307 -1.3575,0 -1.84258,0.68867 -1.3552,1.92397 0.31388,0.79558 0.2778,1.13023 -0.1787,1.65742 -0.87262,1.00773 -1.70007,0.3941 -1.70007,-1.26076 0,-2.6818 3.41362,-4.57232 5.70211,-3.15791 1.03951,0.64247 1.23589,1.57487 1.43735,6.82438 0.18557,4.83547 0.20953,4.95247 0.99462,4.85648 0.92793,-0.11346 1.11598,0.90421 0.23891,1.29289 -1.06614,0.47246 -1.89712,0.24992 -2.446,-0.65505 l -0.5493,-0.90568 -0.8348,0.90568 c -0.84039,0.91175 -3.18183,1.2533 -4.04244,0.58968 z m 4.18266,-2.3238 c 0.37254,-0.70553 0.67795,-1.9997 0.67868,-2.87593 0.001,-1.52837 -0.0386,-1.58218 -0.9819,-1.32331 -1.78714,0.49048 -2.76098,1.62204 -2.8864,3.35391 -0.20382,2.81433 1.86099,3.36156 3.18962,0.84533 z m 3.57113,-15.384367 c -1.06084,-0.8581 -0.90735,-2.77165 0.23738,-2.9594 0.65519,-0.10746 0.80447,0.0649 0.80447,0.92903 0,1.14162 0.72464,1.42335 1.3659,0.53105 0.20946,-0.29147 0.68946,-1.36141 1.06667,-2.37765 l 0.68583,-1.84772 -1.86093,-5.7356 c -1.02352,-3.15459 -2.12739,-5.96061 -2.45306,-6.23562 -1.18124,-0.99748 -0.648,-1.44123 1.7319,-1.44123 1.82744,0 2.32402,0.13234 2.32402,0.61936 0,0.34064 -0.23184,0.61935 -0.51521,0.61935 -0.93545,0 -0.93127,0.72426 0.0219,3.78539 1.76977,5.68393 1.50483,5.50595 2.66285,1.78881 1.23906,-3.97725 1.31128,-5.15921 0.33331,-5.45456 -0.3933,-0.11877 -0.71509,-0.47299 -0.71509,-0.78715 0,-0.41634 0.52741,-0.5712 1.94538,-0.5712 2.17229,0 2.72671,0.47033 1.61471,1.3698 -0.49518,0.40054 -1.3947,2.77089 -2.70136,7.11844 -2.51246,8.35947 -3.27188,10.11187 -4.66697,10.76927 -0.91711,0.43216 -1.22273,0.41261 -1.88165,-0.12037 z m -40.49249,-0.7488 c -0.35107,-0.88984 -0.32552,-1.19165 0.14712,-1.73747 0.89372,-1.03211 1.76665,-0.39033 1.63352,1.20098 -0.14521,1.73566 -1.18403,2.04865 -1.78064,0.53649 z m -10.422286,-4.52151 c -3.63086,-1.53129 -5.47372,-6.443 -4.83717,-12.89235 0.42414,-4.29726 2.74833,-8.373 5.17596,-9.07664 1.27328,-0.36905 3.32451,0.10266 4.13648,0.95126 0.671609,0.70191 0.723279,0.69106 1.361366,-0.28586 0.36479,-0.5585 0.73462,-0.92533 0.82183,-0.81517 0.0872,0.11015 0.23462,2.1048 0.32759,4.43254 0.19667,4.92463 -0.32629,5.69133 -1.25389,1.8383 -1.233016,-5.12159 -4.464226,-6.5462 -6.744976,-2.97379 -0.94765,1.48434 -1.48291,5.44266 -1.28418,9.49678 0.2788,5.6874 1.63739,8.25806 4.36439,8.25806 2.36259,0 3.753616,-1.63639 4.311766,-5.07233 0.14289,-0.87955 0.45726,-1.53412 0.7368,-1.53412 0.59908,0 0.35471,1.88773 -0.56617,4.37353 -1.12072,3.02528 -3.891176,4.42104 -6.549796,3.29979 z m 9.202886,-0.20398 c -0.33519,-0.38709 -0.10708,-0.75359 0.74955,-1.20434 l 0.90084,-0.474 -0.0964,-8.98055 -0.0964,-8.98056 -0.98324,-0.54393 c -0.54078,-0.29916 -0.98324,-0.70088 -0.98324,-0.89272 0,-0.35897 3.18534,-0.83193 3.6648,-0.54416 0.14749,0.0885 0.26816,2.30327 0.26816,4.92167 v 4.76072 l 1.10006,-1.06896 c 1.31292,-1.27581 2.91487,-1.3872 3.88231,-0.26997 1.02866,1.18794 1.44916,3.4856 1.45139,7.93044 0.002,3.90127 0.0199,3.98624 0.89585,4.24013 1.02174,0.29614 1.20539,1.05199 0.26815,1.10362 -4.41024,0.24295 -5.77748,-0.18047 -3.85283,-1.19318 0.86899,-0.45724 0.90311,-0.61645 0.90311,-4.21344 0,-4.8118 -0.57819,-6.60204 -2.13226,-6.60204 -1.82642,0 -2.51282,1.81939 -2.51444,6.66491 -0.001,3.93196 0.01,3.98433 0.91791,4.24749 1.77841,0.51546 0.72365,1.26814 -1.781,1.27092 -1.3261,0.001 -2.47917,-0.076 -2.56238,-0.17205 z m 14.51413,-0.7922 c -3.44316,-3.9763 -1.55408,-13.28359 2.69615,-13.28359 2.1762,0 3.62132,2.08183 4.22763,6.09032 l 0.20298,1.34194 h -3.38771 -3.38771 v 1.68337 c 0,1.31004 0.23179,1.95105 1.04512,2.89032 1.42283,1.64314 2.37656,1.53667 3.95823,-0.44186 1.44217,-1.80404 2.05731,-1.79758 1.24652,0.0131 -1.36447,3.04714 -4.69478,3.90803 -6.60121,1.70641 z m 4.77909,-8.85452 c -0.0482,-1.80998 -0.97121,-3.19036 -2.13319,-3.19036 -1.10815,0 -2.29456,1.85367 -2.29456,3.58506 v 1.40918 l 2.23464,-0.12293 2.23463,-0.12292 z m 3.57368,9.5288 c -0.29317,-0.54781 0.21717,-1.15787 0.9686,-1.15787 0.67036,0 0.69954,-0.26405 0.60459,-5.47097 -0.097,-5.31919 -0.12208,-5.47463 -0.90423,-5.60291 -1.41302,-0.23175 -0.91616,-1.21284 0.71508,-1.41199 0.83576,-0.10204 1.64023,-0.11059 1.78771,-0.019 0.14749,0.0916 0.27169,1.03813 0.27601,2.10343 l 0.008,1.93693 0.68958,-1.75441 c 0.87905,-2.23646 2.19726,-3.03862 3.22622,-1.96324 0.83663,0.87438 0.9655,3.17146 0.2181,3.88779 -0.7501,0.71893 -1.76536,-0.60072 -1.47831,-1.92153 0.34411,-1.58333 -0.58698,-0.95514 -1.40521,0.94807 -0.74148,1.72469 -1.29328,9.23739 -0.68304,9.29942 1.44087,0.14646 2.21167,0.59473 1.81343,1.05462 -0.33796,0.39029 -5.63109,0.45528 -5.83639,0.0717 z m 9.27123,-0.0465 c -0.20227,-0.37796 0.12857,-0.87694 0.63423,-0.95658 0.18026,-0.0284 0.48864,-0.0748 0.68529,-0.10322 0.38783,-0.056 0.51268,-9.42687 0.14052,-10.54688 -0.11937,-0.35922 -0.51211,-0.65312 -0.87276,-0.65312 -0.59558,0 -1.30493,-0.70912 -1.00189,-1.00156 0.0689,-0.0665 0.88944,-0.23634 1.82351,-0.37754 l 1.69833,-0.25672 0.0253,2.3663 0.0253,2.36629 0.66466,-1.72628 c 0.36557,-0.94945 1.07823,-2.03921 1.58369,-2.42168 0.85309,-0.64552 0.98313,-0.64688 1.81287,-0.019 1.0377,0.78521 1.24737,3.10772 0.35754,3.96055 -0.81184,0.7781 -1.71062,-0.25146 -1.52112,-1.74246 0.21903,-1.72345 -0.48613,-1.22261 -1.46841,1.04292 -0.60942,1.40557 -0.89695,2.92228 -1.03364,5.45242 -0.2013,3.7262 -0.21546,3.69439 1.60976,3.61611 0.24581,-0.0105 0.44688,0.28535 0.44681,0.65754 -1.1e-4,0.56725 -0.43905,0.67725 -2.71389,0.6801 -1.49257,0.002 -2.79578,-0.14985 -2.89601,-0.33715 z m -83.179546,-29.877 c -0.1311,-0.1514 -0.23836,-0.61592 -0.23836,-1.03226 0,-0.60442 0.28054,-0.75699 1.39192,-0.75699 1.36237,0 2.11374,0.77983 1.62725,1.68887 -0.23148,0.43254 -2.42464,0.5117 -2.78081,0.10038 z"
       id="path1" /></g></svg>
