<?xml version="1.0" encoding="UTF-8" standalone="no"?>
<!-- Created with Inkscape (http://www.inkscape.org/) -->

<svg
   width="512mm"
   height="512mm"
   viewBox="0 0 512 512"
   version="1.1"
   id="svg1"
   inkscape:version="1.3.2 (091e20e, 2023-11-25, custom)"
   sodipodi:docname="logoMobileMaior.svg"
   xmlns:inkscape="http://www.inkscape.org/namespaces/inkscape"
   xmlns:sodipodi="http://sodipodi.sourceforge.net/DTD/sodipodi-0.dtd"
   xmlns="http://www.w3.org/2000/svg"
   xmlns:svg="http://www.w3.org/2000/svg">
  <sodipodi:namedview
     id="namedview1"
     pagecolor="#ffffff"
     bordercolor="#000000"
     borderopacity="0.25"
     inkscape:showpageshadow="2"
     inkscape:pageopacity="0.0"
     inkscape:pagecheckerboard="0"
     inkscape:deskcolor="#d1d1d1"
     inkscape:document-units="mm"
     inkscape:zoom="0.11336104"
     inkscape:cx="1332.0273"
     inkscape:cy="1010.0472"
     inkscape:window-width="1366"
     inkscape:window-height="705"
     inkscape:window-x="-8"
     inkscape:window-y="32"
     inkscape:window-maximized="1"
     inkscape:current-layer="layer1" />
  <defs
     id="defs1" />
  <g
     inkscape:label="Camada 1"
     inkscape:groupmode="layer"
     id="layer1">
    <rect
       style="fill:#deaa87;fill-rule:evenodd;stroke-width:1.32292"
       id="rect1"
       width="469.13162"
       height="450.45972"
       x="25.67387"
       y="32.675835"
       ry="4.4388337" />
    <path
       style="fill:#784421;stroke-width:2.66666"
       d="M 0.38219356,256.93503 V 0.93503549 H 256.38222 512.38219 V 256.93503 512.93504 H 256.38222 0.38219356 Z M 279.29579,472.25304 c -0.33408,-0.62421 1.07944,-0.8297 3.51915,-0.51157 5.80667,0.75717 7.64123,0.68699 8.28219,-0.31688 0.30938,-0.48453 2.70776,-1.0392 5.32973,-1.23259 2.62197,-0.19333 4.87429,-0.68888 5.00512,-1.10106 0.13094,-0.41222 1.93739,-0.6768 4.01454,-0.588 2.07714,0.0888 5.61701,-0.57707 7.8664,-1.47968 2.24936,-0.90262 4.73333,-1.79694 5.51992,-1.98734 9.35298,-2.26421 29.02456,-12.23296 43.34213,-21.96402 41.72198,-28.35672 74.055,-77.51083 85.86281,-130.53256 4.90291,-22.01589 5.66323,-29.74565 5.68606,-57.80645 0.0187,-23.41861 -0.23574,-27.92941 -2.23926,-39.63871 -4.44952,-26.0055 -15.15843,-57.37276 -26.09784,-76.44281 -2.23221,-3.8913 -4.61827,-8.22677 -5.3024,-9.63442 -0.68411,-1.40763 -1.72096,-2.55934 -2.30413,-2.55934 -0.5832,0 -0.79256,-0.30925 -0.46526,-0.68722 0.32731,-0.37798 -0.35202,-1.60019 -1.50962,-2.71606 -1.15758,-1.11586 -1.71726,-2.0453 -1.24374,-2.06546 0.47355,-0.0213 0.005,-0.90374 -1.04259,-1.96352 -1.04693,-1.05979 -2.07794,-2.50582 -2.29112,-3.21339 -0.52749,-1.75085 -16.28288,-21.463815 -16.73626,-20.940215 -0.19867,0.2296 -2.20488,-1.61232 -4.458,-4.09302 -6.85598,-7.54845 -23.36803,-21.57703 -25.39681,-21.57703 -0.54562,0 -0.99205,-0.49547 -0.99205,-1.10107 0,-0.6056 -0.47008,-1.10107 -1.04464,-1.10107 -0.57453,0 -2.29075,-1.02472 -3.81376,-2.27714 -1.52304,-1.2524 -2.77573,-1.87176 -2.78376,-1.37635 -0.008,0.49544 -0.36136,0.26984 -0.78517,-0.50133 -0.42379,-0.77118 -1.66267,-1.600564 -2.75304,-1.843044 -1.09035,-0.2424 -4.02499,-1.696587 -6.52139,-3.231307 -2.4964,-1.534693 -4.92491,-2.514853 -5.39672,-2.178107 -0.47179,0.33672 -1.58163,-0.104266 -2.46627,-0.979759 -2.57528,-2.548934 -4.40101,-3.581894 -3.56288,-2.015787 0.54096,1.010827 0.27709,1.083733 -1.04448,0.288613 -3.93896,-2.36984 -7.55864,-3.869786 -8.75152,-3.626453 -0.6944,0.1416 -1.76701,-0.2144 -2.38363,-0.791253 -0.61658,-0.576827 -3.5881,-1.633093 -6.60336,-2.347253 -3.01528,-0.71416 -5.48232,-1.712427 -5.48232,-2.2184 0,-0.505947 -0.8581,-0.660774 -1.90688,-0.344054 -1.0488,0.31672 -1.9069,0.0912 -1.9069,-0.500933 0,-0.59224 -1.13638,-0.82592 -2.52531,-0.519307 -1.56451,0.345387 -2.29864,0.133867 -1.92955,-0.555759 0.36542,-0.6828 -0.50139,-0.965707 -2.24192,-0.73168 -2.17803,0.292853 -2.84107,-0.06133 -2.85227,-1.523814 -0.0107,-1.489466 -0.1936,-1.579173 -0.83453,-0.410986 -0.68552,1.249413 -2.81467,1.267866 -12.98859,0.112533 -14.04997,-1.59544 -33.60176,-0.885227 -47.18275,1.71384 -4.98173,0.953387 -10.13035,1.448266 -11.44133,1.099733 -1.50614,-0.4004 -1.92915,-0.28224 -1.1491,0.32104 0.82115,0.63504 -1.4136,1.770267 -6.6741,3.3904 -4.34976,1.339627 -11.74766,4.1144 -16.43982,6.166133 -4.69213,2.05176 -8.94165,3.437466 -9.44338,3.079387 -0.53971,-0.3852 -0.59352,-0.05547 -0.13174,0.807226 0.56667,1.058853 0.34587,1.265733 -0.80613,0.7552 -0.87261,-0.386693 -1.58659,-0.193867 -1.58659,0.4284 0,0.622347 -0.42904,0.82528 -0.95344,0.451013 -0.5244,-0.374266 -0.95344,-0.07333 -0.95344,0.669067 0,0.742267 -0.27355,1.03368 -0.60787,0.6476 -0.33432,-0.38608 -3.87397,1.34424 -7.86592,3.845171 -34.70715,21.74395 -65.31835,58.933365 -81.397824,98.889765 -1.82778,4.54195 -3.3812,8.50582 -3.45202,8.80862 -0.0709,0.3028 -1.45152,4.5144 -3.06819,9.35914 -1.61667,4.84472 -3.28091,10.5428 -3.69829,12.66235 -0.41742,2.11957 -1.88982,9.05635 -3.27203,15.41507 -1.38222,6.35872 -2.75595,15.27741 -3.05272,19.81935 -1.08091,16.54198 -1.78664,39.8607 -1.21859,40.26544 0.3204,0.22827 0.87597,5.01171 1.23459,10.62971 0.99744,15.62544 1.77698,20.22285 6.77304,39.94357 3.34429,13.20091 8.27949,27.63021 11.22709,32.82539 0.89936,1.58514 1.635227,3.38626 1.635227,4.0025 0,2.06917 13.494167,26.49517 16.651877,30.14181 0.80496,0.9296 1.46357,1.90499 1.46357,2.1675 0,0.97509 9.28619,12.65469 17.7196,22.28661 24.89707,28.43538 57.86604,48.88 92.90516,57.6121 8.79656,2.19219 26.72557,4.26816 42.40318,4.90982 4.19517,0.17173 7.97466,0.41186 8.3989,0.53376 0.42427,0.12186 0.52011,-0.248 0.21307,-0.82171 z m -94.09425,-141.373 c -10.16517,-4.35678 -17.7669,-17.29523 -20.02754,-34.08771 -2.11686,-15.7245 1.86042,-32.00613 10.21045,-41.7981 4.14869,-4.86512 6.45133,-5.71592 13.27024,-4.90318 l 5.04147,0.60091 -1.32507,-5.08459 c -3.54834,-13.61578 -3.46416,-34.39821 0.21467,-53.01437 1.21245,-6.1353 1.21792,-7.29677 0.0408,-8.65621 -1.17717,-1.35947 -2.66571,-0.0392 -11.09376,9.83877 -15.5204,18.19075 -27.96038,37.06315 -34.42195,52.22075 -2.37814,5.57864 -2.98406,8.34928 -2.8872,13.20168 0.11733,5.87176 0.0285,6.10973 -2.0196,5.42274 -2.9112,-0.97642 -6.524,-6.08736 -6.21118,-8.78677 0.1512,-1.30493 1.10419,-2.34171 2.33894,-2.54469 1.52893,-0.25147 2.98802,-2.4847 5.48013,-8.38819 8.9388,-21.17498 28.92854,-49.31141 50.56923,-71.17842 l 9.18195,-9.27795 -2.99344,-1.41934 c -1.6464,-0.78061 -7.41117,-1.98944 -12.81064,-2.68624 l -9.81723,-1.26691 -10.91547,4.146 c -11.4668,4.35542 -16.50285,4.78433 -18.2536,1.55457 -1.41053,-2.60217 -0.22533,-3.5503 4.07187,-3.25747 2.21376,0.15093 6.84379,-1.09523 11.65373,-3.13635 13.13846,-5.57536 22.66603,-5.53648 37.38966,0.15253 l 5.57288,2.15331 4.12203,-3.90072 c 4.57901,-4.33312 6.194,-4.85011 6.16592,-1.97381 -0.0107,1.07941 -3.37864,4.99421 -7.65803,8.90104 -4.20157,3.83579 -8.28608,8.1143 -9.07672,9.50776 -0.79061,1.3935 -2.78707,8.41254 -4.43653,15.5979 -2.76403,12.04053 -3.0039,14.48794 -3.06091,31.23202 -0.0555,16.28051 0.16907,18.93979 2.16115,25.6 l 2.22298,7.43227 h 4.5696 c 14.91064,0 23.18419,11.59512 23.17691,32.4817 -0.005,18.96931 -7.86493,36.71424 -19.32099,43.62893 -5.19544,3.13587 -15.77445,3.98126 -21.1248,1.68811 z m -8.05541,-17.42675 c -0.47968,-0.89627 -0.14293,-1.04605 1.10645,-0.49232 0.98774,0.43771 1.49091,0.44363 1.11814,0.0133 -0.37275,-0.43048 -0.21307,-1.42928 0.35485,-2.21954 0.76365,-1.06264 0.40627,-2.95291 -1.37227,-7.2583 -2.03274,-4.92066 -3.22112,-10.8268 -3.44221,-17.10746 -0.0712,-2.02403 -3.55816,-1.67741 -4.25613,0.42307 -0.99728,3.0013 1.78762,17.09618 4.53944,22.97477 0.56696,1.21117 1.09968,2.57376 1.18381,3.02797 0.32512,1.75515 0.40749,1.92688 0.92432,1.92688 0.29315,0 0.22267,-0.57971 -0.15653,-1.28821 z m -1.90877,-32.38464 c 0.31829,-0.95792 0.57874,-2.97432 0.57874,-4.48088 0,-2.21088 -0.41378,-2.67136 -2.14525,-2.38738 -1.7232,0.28264 -2.20349,1.16421 -2.44117,4.4809 -0.24934,3.47875 -0.003,4.12902 1.5665,4.12902 1.02435,0 2.12288,-0.78374 2.44118,-1.74166 z m -61.4575,41.97877 c -5.338,-4.04392 -11.9642,-13.26112 -15.318064,-21.30776 -2.6488,-6.35512 -3.12872,-8.84461 -3.49082,-18.10839 -0.36382,-9.30675 -0.092,-11.95216 2.03602,-19.81936 5.136024,-18.98726 16.043904,-31.71891 27.261184,-31.81926 4.14099,-0.0371 8.64288,1.83582 8.64288,3.59555 0,0.38251 -1.60893,0.99587 -3.57541,1.36301 -1.96648,0.36715 -5.29163,2.03992 -7.3892,3.71731 -2.09758,1.67736 -5.10094,3.54611 -6.67414,4.15277 -2.11477,0.8155 -2.93896,1.89224 -3.16203,4.13094 -0.2024,2.03157 -0.85701,3.02797 -1.98933,3.02797 -3.53699,0 -10.407287,22.03837 -7.97542,25.58333 0.5256,0.76616 1.04224,5.29902 1.14813,10.07302 0.31731,14.30637 5.0419,27.23186 12.81463,35.05813 3.63701,3.66205 2.30605,3.86368 -2.32843,0.35274 z m 201.75938,-1.46578 c -1.07552,-1.24203 -0.44526,-2.21883 1.86341,-2.888 l 2.38363,-0.69088 -0.0133,-19.5231 c -0.008,-10.7377 -0.32981,-20.05474 -0.71506,-20.7045 -0.38528,-0.64976 -1.45134,-1.50131 -2.36902,-1.89232 -2.57498,-1.09717 -1.9813,-2.63469 1.31099,-3.39512 5.01491,-1.15827 5.60149,-0.89581 5.60149,2.50629 v 3.19446 l 3.04846,-3.28864 c 2.46408,-2.65819 3.60642,-3.16526 5.95904,-2.6451 8.78733,1.94294 12.2452,21.69291 5.49069,31.36075 -3.29301,4.71338 -8.65957,5.98061 -11.73139,2.77021 -1.76381,-1.84339 -1.81336,-1.70715 -1.81336,4.98501 0,6.00014 0.2488,6.95534 1.94587,7.46784 1.07024,0.3232 1.7856,1.1439 1.58965,1.82379 -0.35922,1.24661 -11.55613,2.06683 -12.54978,0.91931 z m 19.00096,-19.99838 c 1.79138,-4.00056 1.93672,-18.15301 0.22666,-22.07618 -1.59048,-3.64888 -5.43632,-4.15531 -7.87952,-1.0376 -2.69949,3.4448 -2.72866,20.61472 -0.0408,24.04458 2.65259,3.38491 5.9392,2.98731 7.69368,-0.9308 z m 57.29539,18.74552 c -0.91384,-1.1661 -1.51227,-3.02418 -1.32984,-4.12901 0.35501,-2.15016 4.52251,-3.5048 4.72187,-1.53485 0.0656,0.6477 0.2264,1.67314 0.35754,2.27872 0.1312,0.6056 0.292,1.42562 0.35755,1.82226 0.29088,1.76022 4.00669,-3.6232 5.39173,-7.81146 l 1.52734,-4.61848 -4.78744,-14.71942 c -2.63307,-8.09567 -5.45019,-15.14778 -6.26027,-15.6713 -3.0072,-1.94349 -1.29856,-3.04461 4.72453,-3.04461 6.03696,0 8.13254,1.34448 4.29051,2.75269 -1.0488,0.38443 -1.88373,1.28491 -1.85541,2.00109 0.12266,3.10163 6.47197,20.96485 6.92048,19.46987 4.61933,-15.39731 5.44861,-20.92043 3.14122,-20.92043 -0.73048,0 -1.57512,-0.74322 -1.87696,-1.6516 -0.44661,-1.34402 0.42224,-1.65162 4.6652,-1.65162 5.56158,0 6.47521,1.14298 3.37945,4.22781 -1.04027,1.03661 -4.2303,9.87899 -7.3679,20.42301 -5.66075,19.0232 -8.60643,24.89757 -12.48477,24.89757 -1.01934,0 -2.60102,-0.9541 -3.51483,-2.12024 z M 234.69134,307.5155 c -1.34179,-1.59221 -0.71742,-2.53712 1.90688,-2.88581 l 2.62197,-0.3484 v -24.22368 -24.22365 l -2.67851,-0.35469 c -1.53685,-0.20347 -2.51816,-0.9075 -2.30234,-1.65163 0.26453,-0.91181 3.93178,-1.26208 12.35032,-1.17965 10.88109,0.10666 12.25568,0.34872 15.05786,2.65301 1.76459,1.45104 4.15291,5.16891 5.58326,8.69136 2.14773,5.28901 2.49963,7.62816 2.49963,16.61581 0,12.75947 -2.29038,19.36061 -8.31497,23.96485 -3.43365,2.62411 -4.84714,2.94142 -14.90125,3.34507 -6.10928,0.24533 -11.42957,0.064 -11.82285,-0.40259 z M 256.28,303.16241 c 5.5428,-3.03749 6.77632,-7.04827 6.77632,-22.03322 0,-15.67974 -1.56653,-21.32136 -6.70176,-24.1355 -4.37264,-2.39624 -8.73024,-2.21253 -9.94997,0.4195 -0.57907,1.24949 -0.98701,10.60877 -0.98701,22.64442 0,12.03565 0.40794,21.39493 0.98701,22.64445 1.21237,2.61611 5.57083,2.81928 9.87541,0.46035 z m 18.69435,3.58211 c 0,-0.76478 0.96536,-1.87963 2.14526,-2.47742 1.98917,-1.00784 2.16552,-1.88792 2.42397,-12.09765 0.33475,-13.22229 -0.0989,-15.70077 -2.8276,-16.1645 -3.87088,-0.65784 -2.86387,-2.77827 1.65944,-3.49427 2.43312,-0.38512 4.80848,-0.42571 5.27861,-0.0901 0.47014,0.33554 0.85478,7.564 0.85478,16.06322 0,14.52715 0.1144,15.48768 1.90688,16.02904 1.0488,0.31672 1.9069,1.26131 1.9069,2.09907 0,1.15181 -1.62728,1.5232 -6.67413,1.5232 -4.73992,0 -6.67411,-0.40299 -6.67411,-1.39054 z m 17.76296,-1.08691 c -0.88413,-3.80997 -0.70613,-10.53043 0.29792,-11.24704 0.49438,-0.35285 1.75816,1.60184 2.80843,4.34376 2.28016,5.95283 5.57157,7.96544 9.49056,5.80328 2.77952,-1.53349 3.80899,-5.54635 2.05059,-7.99315 -0.60856,-0.84682 -3.41032,-2.31312 -6.22611,-3.25845 -2.96384,-0.99501 -5.74056,-2.74253 -6.59427,-4.15008 -5.03605,-8.30328 2.71763,-20.73562 10.09035,-16.17888 1.36035,0.84075 2.26486,0.83272 3.16304,-0.028 1.65195,-1.5833 2.434,0.72966 2.434,7.19872 0,5.87032 -1.00768,6.1871 -3.1532,0.99126 -2.03082,-4.91806 -5.43554,-6.88723 -8.82475,-5.1039 -2.00746,1.0563 -2.39029,1.92294 -2.14525,4.85632 0.26667,3.19251 0.75253,3.72123 4.58875,4.99328 6.51995,2.16195 8.93195,3.86051 10.36243,7.29725 1.64818,3.9599 0.12373,10.75518 -2.97496,13.26171 -2.38064,1.92568 -7.60318,2.22488 -10.25262,0.58741 -1.19411,-0.73802 -1.98224,-0.73802 -2.3772,0 -0.97872,1.82878 -2.12848,1.252 -2.73771,-1.37338 z m 53.46668,1.78848 c -1.2359,-1.42725 -0.69734,-2.45739 1.47056,-2.81296 l 2.14525,-0.35184 v -23.67312 c 0,-23.49381 -0.016,-23.68136 -2.14525,-24.76005 -3.8356,-1.94331 -2.53955,-3.86792 2.60472,-3.86792 h 4.74997 l 0.25573,26.15053 0.25574,26.15056 2.20021,0.36016 c 1.21011,0.19813 2.034,0.94131 1.83088,1.6516 -0.40656,1.42179 -12.25027,2.44336 -13.36757,1.15304 z m 19.72874,-0.1536 c -1.55272,-1.19731 -3.24144,-5.30064 -3.24144,-7.87619 0,-3.76869 4.85176,-8.89765 10.49648,-11.09621 4.73137,-1.84282 5.26478,-2.37512 5.54081,-5.52901 0.37778,-4.31675 -2.03691,-7.68819 -5.50646,-7.68819 -3.62,0 -4.91355,1.83646 -3.61387,5.13059 0.83702,2.12155 0.7408,3.01395 -0.47653,4.41979 -2.32699,2.68728 -4.53352,1.05093 -4.53352,-3.36203 0,-7.15147 9.10299,-12.19285 15.20563,-8.42109 2.77203,1.71325 3.29571,4.19965 3.83293,18.19834 0.49486,12.89459 0.55875,13.20659 2.65232,12.95061 2.47448,-0.30256 2.97595,2.41123 0.6371,3.44771 -2.84304,1.25989 -5.05899,0.66645 -6.52267,-1.7468 l -1.4648,-2.41515 -2.22614,2.41515 c -2.24104,2.43133 -8.48488,3.34213 -10.77984,1.57248 z m 11.15377,-6.1968 c 0.99344,-1.88141 1.80786,-5.33253 1.80981,-7.66915 0.003,-4.07565 -0.10293,-4.21914 -2.6184,-3.52882 -4.76571,1.30794 -7.36262,4.32544 -7.69707,8.94376 -0.54352,7.50488 4.96264,8.96416 8.50566,2.25421 z m 9.52301,-41.02496 c -2.82891,-2.28826 -2.4196,-7.39106 0.63301,-7.89173 1.74718,-0.28656 2.14526,0.17307 2.14526,2.47741 0,3.04432 1.93237,3.7956 3.6424,1.41614 0.55856,-0.77726 1.83856,-3.63043 2.84445,-6.3404 l 1.82888,-4.92726 -4.96248,-15.29493 c -2.72939,-8.41224 -5.67304,-15.89496 -6.54149,-16.62832 -3.14998,-2.65994 -1.728,-3.84328 4.6184,-3.84328 4.87317,0 6.19738,0.35291 6.19738,1.65163 0,0.90837 -0.61824,1.6516 -1.37389,1.6516 -2.49453,0 -2.48339,1.93136 0.0584,10.09437 4.71939,15.15715 4.01288,14.68253 7.10093,4.77016 3.30416,-10.606 3.49675,-13.75789 0.88883,-14.54549 -1.0488,-0.31672 -1.90691,-1.26131 -1.90691,-2.09907 0,-1.11024 1.40643,-1.5232 5.18768,-1.5232 5.79278,0 7.27123,1.25422 4.3059,3.6528 -1.32048,1.06811 -3.7192,7.38904 -7.20363,18.98251 -6.69989,22.29192 -8.72501,26.96498 -12.44525,28.71805 -2.44563,1.15243 -3.26062,1.10029 -5.01774,-0.32099 z m -107.97998,-1.9968 c -0.93619,-2.3729 -0.86806,-3.17773 0.39232,-4.63325 2.38325,-2.75229 4.71106,-1.04088 4.35605,3.20261 -0.38723,4.62843 -3.15741,5.46307 -4.74837,1.43064 z m -27.79275,-12.05736 c -9.6823,-4.08344 -14.59659,-17.18133 -12.89912,-34.37959 1.13104,-11.45936 7.32888,-22.328 13.80256,-24.20438 3.39541,-0.98413 8.86536,0.27376 11.03061,2.5367 1.79094,1.87176 1.92872,1.84282 3.6303,-0.7623 0.97277,-1.48933 1.95898,-2.46754 2.19154,-2.17378 0.23254,0.29373 0.62566,5.6128 0.87358,11.8201 0.52445,13.13235 -0.87011,15.17688 -3.34371,4.90214 -3.28803,-13.65758 -11.90459,-17.45654 -17.98659,-7.93011 -2.52707,3.95824 -3.95443,14.51376 -3.42448,25.32475 0.74347,15.16639 4.36637,22.02149 11.63837,22.02149 6.30024,0 10.00963,-4.36371 11.49803,-13.52622 0.38104,-2.34546 1.21936,-4.09098 1.9648,-4.09098 1.59755,0 0.9459,5.03394 -1.50978,11.66274 -2.98859,8.06742 -10.37646,11.78944 -17.46611,8.79944 z m 24.54101,-0.54394 c -0.89384,-1.03224 -0.28554,-2.00958 1.9988,-3.21158 l 2.40224,-1.264 -0.25706,-23.94813 -0.25707,-23.94816 -2.62197,-1.45048 c -1.44208,-0.79776 -2.62198,-1.86901 -2.62198,-2.38058 0,-0.95726 8.49424,-2.21848 9.7728,-1.4511 0.39331,0.236 0.7151,6.14206 0.7151,13.12446 v 12.69525 l 2.93349,-2.85056 c 3.50112,-3.40216 7.77299,-3.6992 10.35283,-0.71992 2.74309,3.16784 3.86443,9.29493 3.87037,21.14784 0.005,10.40338 0.0531,10.62997 2.38894,11.30701 2.72464,0.78971 3.21437,2.80531 0.71506,2.94299 -11.76064,0.64786 -15.40661,-0.48126 -10.27421,-3.18182 2.3173,-1.2193 2.40829,-1.64386 2.40829,-11.23584 0,-12.83146 -1.54184,-17.60543 -5.68603,-17.60543 -4.87045,0 -6.70085,4.8517 -6.70517,17.77309 -0.003,10.48522 0.0267,10.62488 2.44776,11.32664 4.74243,1.37456 1.92973,3.3817 -4.74933,3.38912 -3.53627,0.003 -6.61112,-0.20267 -6.83302,-0.4588 z m 38.70435,-2.11254 c -9.18176,-10.60346 -4.14421,-35.4229 7.18974,-35.4229 5.8032,0 9.65685,5.55155 11.27368,16.24085 l 0.54128,3.57851 h -9.0339 -9.03389 v 4.48898 c 0,3.49344 0.61811,5.2028 2.78699,7.70752 3.79421,4.38171 6.33749,4.09779 10.55528,-1.17829 3.84578,-4.81077 5.48616,-4.79355 3.32405,0.0349 -3.63859,8.12571 -12.51941,10.42142 -17.60323,4.55043 z m 12.74424,-23.61205 c -0.12853,-4.82661 -2.58989,-8.50762 -5.6885,-8.50762 -2.95507,0 -6.11883,4.94312 -6.11883,9.56016 v 3.75781 l 5.95904,-0.32781 5.95901,-0.32779 z m 9.52982,25.41013 c -0.78179,-1.46082 0.57912,-3.08765 2.58293,-3.08765 1.78763,0 1.86544,-0.70413 1.61224,-14.58925 -0.25866,-14.18451 -0.32554,-14.59901 -2.41128,-14.94109 -3.76805,-0.618 -2.44309,-3.23424 1.90688,-3.76531 2.2287,-0.27211 4.37395,-0.29491 4.76723,-0.0507 0.39331,0.24427 0.72451,2.76835 0.73603,5.60915 l 0.0213,5.16515 1.83888,-4.67843 c 2.34413,-5.96389 5.85936,-8.10299 8.60325,-5.23531 2.23102,2.33168 2.57467,8.45723 0.5816,10.36744 -2.00026,1.91715 -4.70762,-1.60192 -3.94216,-5.12408 0.91763,-4.22221 -1.56528,-2.54704 -3.74722,2.52819 -1.97728,4.59917 -3.44875,24.63304 -1.82144,24.79845 3.84232,0.39056 5.89778,1.58595 4.83581,2.81232 -0.90123,1.04077 -15.01624,1.21408 -15.56371,0.1912 z m 24.72328,-0.124 c -0.53939,-1.00789 0.34285,-2.3385 1.69128,-2.55088 0.48069,-0.0757 1.30304,-0.19946 1.82744,-0.27525 1.03421,-0.14933 1.36715,-25.13832 0.37472,-28.12501 -0.31832,-0.95792 -1.36563,-1.74165 -2.32736,-1.74165 -1.58821,0 -3.47981,-1.89099 -2.67171,-2.67083 0.18374,-0.17733 2.37184,-0.63024 4.8627,-1.00677 l 4.52888,-0.68459 0.0675,6.31013 0.0675,6.31011 1.77243,-4.60341 c 0.97485,-2.53187 2.87528,-5.4379 4.22317,-6.45782 2.27491,-1.72138 2.62168,-1.72501 4.83432,-0.0507 2.7672,2.09389 3.32632,8.28725 0.95344,10.56146 -2.1649,2.07494 -4.56165,-0.67056 -4.05632,-4.64656 0.58408,-4.59586 -1.29635,-3.26029 -3.91576,2.78112 -1.62512,3.74819 -2.39187,7.79275 -2.75637,14.53979 -0.5368,9.93653 -0.57456,9.8517 4.29269,9.64296 0.65549,-0.028 1.19168,0.76093 1.19149,1.75344 -2.9e-4,1.51266 -1.1708,1.806 -7.23704,1.8136 -3.98018,0.005 -7.45541,-0.3996 -7.72269,-0.89907 z M 139.26735,165.36218 c -0.3496,-0.40374 -0.63562,-1.64246 -0.63562,-2.7527 0,-1.61179 0.7481,-2.01864 3.71178,-2.01864 3.63299,0 5.63664,2.07954 4.33934,4.50366 -0.61728,1.15344 -6.46571,1.36453 -7.4155,0.26768 z"
       id="path1" />
  </g>
</svg>
